<?xml version="1.0" encoding="utf-8"?>
<!-- Generator: Adobe Illustrator 22.1.0, SVG Export Plug-In . SVG Version: 6.00 Build 0)  -->
<svg version="1.1" id="Layer_1" xmlns="http://www.w3.org/2000/svg" xmlns:xlink="http://www.w3.org/1999/xlink" x="0px" y="0px"
	 viewBox="0 0 100 125" style="enable-background:new 0 0 100 125;" xml:space="preserve">
<style type="text/css">
	.st0{fill:none;}
	.st1{fill:#FFFFFF;stroke:#231F20;stroke-width:0.25;stroke-miterlimit:10;}
</style>
<rect class="st0" width="100" height="100"/>
<g>
	<path class="st1" d="M35.5,67c-4.6-2.7-10.4-1.6-13.7,2.4L40,80.1C41.9,75.3,40.1,69.7,35.5,67z"/>
	<path class="st1" d="M27.3,73.5c0,0,0.6,2.9-2.2,7.8l-1.5,2.6c0,0-1.5,2.3-0.5,2.9l0.5,0.3l0.5,0.3c1,0.6,2.3-1.8,2.3-1.8L28,83
		c2.9-4.9,5.7-5.7,5.7-5.7l-3.2-1.9L27.3,73.5z"/>
	<path class="st1" d="M64.5,67c-4.6,2.7-6.4,8.3-4.5,13.1l18.1-10.8C74.9,65.4,69.1,64.3,64.5,67z"/>
	<path class="st1" d="M74.9,81.3c-2.9-4.9-2.2-7.8-2.2-7.8l-3.2,1.9l-3.2,1.9c0,0,2.9,0.8,5.7,5.7l1.5,2.6c0,0,1.3,2.4,2.3,1.8
		l0.5-0.3l0.5-0.3c1-0.6-0.5-2.9-0.5-2.9L74.9,81.3z"/>
	<polygon class="st1" points="48.9,42.5 34.3,65.5 35.9,66.4 37.4,67.3 50,44.5 62.6,67.3 64.1,66.4 65.7,65.5 51.1,42.5 67.7,12.6 
		50,40.7 32.3,12.6 	"/>
</g>
</svg>
