<svg xmlns="http://www.w3.org/2000/svg" xmlns:xlink="http://www.w3.org/1999/xlink" version="1.1" x="0px" y="0px" viewBox="0 0 100 125" enable-background="new 0 0 100 100" xml:space="preserve"><rect fill="none" width="100" height="100"/><g><path d="M35.491,66.979c-4.584-2.717-10.374-1.611-13.665,2.37l18.146,10.755C41.883,75.305,40.074,69.695,35.491,66.979z"/><path d="M27.337,73.477c0,0,0.639,2.909-2.248,7.779l-1.518,2.56c0,0-1.469,2.337-0.469,2.93l0.5,0.295l0.5,0.297   c1,0.591,2.343-1.818,2.343-1.818l1.518-2.56c2.886-4.871,5.745-5.708,5.745-5.708l-3.185-1.888L27.337,73.477z"/><path d="M64.509,66.979c-4.584,2.716-6.394,8.325-4.481,13.125L78.174,69.35C74.882,65.368,69.093,64.263,64.509,66.979z"/><path d="M74.911,81.256c-2.887-4.87-2.249-7.779-2.249-7.779l-3.185,1.887l-3.185,1.888c0,0,2.859,0.837,5.745,5.708l1.518,2.56   c0,0,1.344,2.409,2.343,1.818l0.499-0.297l0.501-0.295c0.998-0.593-0.47-2.93-0.47-2.93L74.911,81.256z"/><polygon points="48.866,42.466 34.345,65.471 35.854,66.366 37.364,67.261 50,44.508 62.636,67.261 64.146,66.366 65.655,65.471    51.135,42.466 67.737,12.57 50,40.669 32.263,12.57  "/></g><text x="0" y="115" fill="#000000" font-size="5px" font-weight="bold" font-family="'Helvetica Neue', Helvetica, Arial-Unicode, Arial, Sans-serif">Created by Marco Livolsi</text><text x="0" y="120" fill="#000000" font-size="5px" font-weight="bold" font-family="'Helvetica Neue', Helvetica, Arial-Unicode, Arial, Sans-serif">from the Noun Project</text></svg>